<?xml version="1.0" encoding="utf-8"?>
<!-- Generator: Adobe Illustrator 28.2.0, SVG Export Plug-In . SVG Version: 6.00 Build 0)  -->
<svg version="1.1" id="Layer_1" xmlns="http://www.w3.org/2000/svg" xmlns:xlink="http://www.w3.org/1999/xlink" x="0px" y="0px"
	 viewBox="0 0 125 102" style="enable-background:new 0 0 125 102;" xml:space="preserve">
<style type="text/css">
	.st0{fill:#6E777A;}
</style>
<g>
	<g>
		<path class="st0" d="M83.4,45.7c0.1,0.1,0.3,0.3,0.4,0.4c0.2,0.1,0.5,0.2,0.6-0.1c0,0,0.5-1.8,0.5-1.8c-0.2,0.2-0.6,0.2-0.7,0
			c-0.1-0.2-0.2-0.4-0.1-0.6C83.8,43.5,83.4,45.6,83.4,45.7z"/>
		<path class="st0" d="M51.7,99.7c-4.7,0.2-3.8-6.3-5.7-6c1.7,1.8,1.7,5.2,3.2,6.1c3.1,1.3,6.4,1.5,9.7,1.4
			c-1.7-1.5-2.1-3.4-2.6-5.4C51.2,93.8,47.5,98.9,51.7,99.7z"/>
		<path class="st0" d="M72.3,99.7c4.2-0.8,0.5-5.9-4.7-3.8c-0.5,2-0.9,3.9-2.6,5.4c3.4,0.2,6.6-0.1,9.7-1.4c1.6-0.9,1.6-4.3,3.2-6.1
			C76.1,93.3,76.9,99.9,72.3,99.7z"/>
		<path class="st0" d="M106.4,59c0,0.1,0,0.2,0.1,0.3c0.2-0.2,0.6-0.1,0.8,0.1c0.3-0.1,0.2-0.9,0.2-1.1c-0.3-0.3-0.6-0.7-1-0.9
			L106.4,59z"/>
		<path class="st0" d="M104.9,65.4c0,0,0.1-0.1,0.1-0.1c0-0.2,1.3-2.4,1-2.6c-0.2,0-0.5-0.1-0.6-0.3c-0.3-0.1-1.1,2.2-1.3,2.4
			C104.6,64.5,105.1,64.9,104.9,65.4z"/>
		<path class="st0" d="M101.5,70.5c0.1,0,0.2,0,0.3-0.1c0-0.1,1.6-2.2,1.4-2.3c-0.2-0.1-0.3-0.2-0.4-0.4c-0.1-0.1-0.4-0.2-0.5,0
			c-0.1,0.3-1.8,2.2-1.3,2.5c0.1,0,0.1,0,0.2,0C101.3,70.2,101.4,70.3,101.5,70.5z"/>
		<path class="st0" d="M100.3,70.6c0,0,0.1,0.1,0.1,0.1l0-0.1L100.3,70.6z"/>
		<path class="st0" d="M26.1,74.2c-0.8,0.5-0.2,1.5,0.5,1.7c-1.4,2.5-0.3,2.9,1.8,4.2c0-1,0-1.8,0.4-2.7c3,2-1.5,2.3,4.4,4.7
			c-0.6-1-0.6-2.1-0.7-3c0.6,0.1,1.1,0.3,1.6,0.4c0.6,2.7,2.1,3,4.7,2.7c-0.9-0.9-1.2-2.1-1.9-3.1c0.8,0.3,1.6-0.3,2.2,0.3
			c0.6,0.1,1.3,0.2,1.9,0c-1-1.6-1.9-3.2-2.9-4.9c-1.7,2.1-4.6,0.8-6.5-0.5c-1.5-1.1,1.7-2.8,0.7-6.5c1.4,2.3-1.2,4.3,2.9,5.6
			c-1.2-1.7-1-4-1.5-6c-0.1-0.3-0.2-0.7,0.1-1c0.1-0.5,0.2-1.1-0.5-1.2c-4.5-2.6-3.6-1.3-8-1.9c-1.1,1.9,1.2,3.6,0.9,5.5
			c-0.3,0.9,1.1,0.9,1,1.8C27.8,71.7,27.7,73.6,26.1,74.2z"/>
		<path class="st0" d="M83.7,79.3c6.8-1.4-0.8-3.4,12.5-4.9c2.4-1.1-2.2-2.9,2.4-5.8c0.4-1.6,0.7-3.3,1.5-4.7
			c0.2-0.5-0.1-1.1-0.6-1.5c-2,1.4-3-0.9-7.4,1.8c-0.8,0.1-1,0.5-0.8,1.3c-0.9,1.9-0.9,4.3-2.4,5.9c3.3-0.9,2.6-2.2,3.4-4.7
			c-0.2,3.4,0,3.3,1.2,5.7c-2.5,1.8-6.7,0.3-8.1,3.7c0.4,0.4,0.9,0,1.4,0.1c-0.3,0.4-0.5,0.9-1,1.2c0.1-0.3,0.2-0.5,0.3-0.7
			C85.2,76.5,84.4,78.6,83.7,79.3z"/>
		<path class="st0" d="M23.8,36.4c0-0.5,0.1-0.9,0.1-1.4c-0.5-0.1-1-0.2-1.5-0.3c0.6-0.5,1.4-0.6,2-0.3c-0.5,2.2,0.4,3.7,2.7,3.8
			c0.7-1.1,1.4-1.2,2.1-0.5c-3.1-0.3-0.8,2.9,0.8,1.8c0.4-0.6,1.8-1.1,1.4-2c-2.5-1.8-2.3,0.9-2.7-3.6c-0.1,0-0.2,0-0.3,0
			c-0.2,0.8-1.1,1.5-1.7,0.7c-0.2-0.3-0.4-0.5-0.8-0.6c1.7-1.3,3.7,0.6,3.5-2.6c1.9,2.3,2-0.3,3.9-0.3c-0.1,1.9-0.5,1.7-2.1,1.6
			c0.5,0.4,2.5,2.4,1.4,2.6c-0.5-1.2-1.3-2.5-2.7-2.7c-1.1,1.1-0.6,2.4-0.4,3.6c1-0.3,1.8-1,2.9-0.9c0.3,1-1.3,1.6-0.4,2.6
			c1.6,0.3,3.3,0.3,2.8-2c-0.5-0.3-1-0.5-1.6,0c0-0.9,0.9-1,1.6-0.9c1.5-1.6,1-3.6-0.6-4.9c0.4-0.6,0.9-1,1.6-1.2
			c-0.3,0.5-0.8,0.7-0.9,1.2c0.4,0.4,0.7,0.8,1,1.2c0.8-0.4,1.1-1.7,0.5-3.1c-1,0.3-2.9,1.1-2.9,1.1c-0.9-0.3-0.5,0.1-0.4,0.5
			c-2.9,0.5-5.7,1.3-8,3.2c-0.4,0.3-0.6,0.1-0.7-0.5c-0.3-0.4-0.4,0.3-0.4,0.5c0,0-1.7,0.4-2.5,1.1C21.9,35.5,22.6,36.9,23.8,36.4z"
			/>
		<path class="st0" d="M35.1,35.6c0.3,1.3-0.1,2.4-1,3.4c1.3,2.3,3.4,4,4.4,6.5c2.1-4-0.1-5.3-3.1-7.5c1.9,0.7,3.8,1.3,4.8,3.1
			c0.2-3.4-1.3-5.1-4.6-5.7c0,0,0-0.1,0-0.1c1.4-0.1,2.8-0.1,4.1,0.8c-0.3-1.1-1.2-2.6-2.5-2.5c0.5-0.9,0.4-1.6,0-2.1
			c-0.2,0.7-0.6,1.1-1.3,1.1C36.1,33.7,35.8,34.7,35.1,35.6z"/>
		<path class="st0" d="M31,48.1c-1.4-2.3-0.5-5.1-1.4-7.5c-0.9-0.5-1.8-0.6-2.4-1.3c-0.2-0.3-0.5-0.5-0.8-0.5
			c-1-0.2-1.9-0.6-2.5-1.4c-0.7,0.2-1.2,0.2-1.9-0.1c-0.1,0.8,0.7,1.7,1.6,1.4c-0.8,1.1-0.3,2.1-0.1,3.2c0.5-1.1,1.4-1.8,2.3-2.4
			c-0.7,1.2-2,2.4-1.4,3.9c0.4,1,1,2.1,2,2.5c-0.5-1.9,0.8-3.5,1.4-5.2C27.9,44.5,25.6,46.6,31,48.1z"/>
		<path class="st0" d="M36.5,58.9c-1.1,9.3,2.5,18.6,9.7,24.6c0.7-0.7-0.3-1.1-0.7-1.6C39,75.9,36.6,68,37.2,59.2
			C37,59.2,36.8,59.1,36.5,58.9z"/>
		<path class="st0" d="M107,39.5c1-3.2,0.5-5.2-2.7-6.4c-0.6,1.2,1.2,1.7,1.2,2.8c-0.5-0.4-0.9-0.7-1.3-1.1
			C103.6,37.1,106.2,37.8,107,39.5z"/>
		<path class="st0" d="M32.8,42.6c-1.7,0.1-1.5-2.1-2-3.3c-0.3,0.4-0.6,0.6-0.9,1c0.4,1.2,0.7,2.4,1.1,3.7c0.3-0.2,0.5-0.4,0.8-0.6
			c1.2,0.9,2.3,0.3,2.7-1.1c0.4,0.1,0.7,0.2,0.9,0c-0.6-1.2-1.1-2.3-1.7-3.4c-0.3,0.1-0.7-0.4-1.1,0C33.1,40,34.5,42.1,32.8,42.6z"
			/>
		<path class="st0" d="M104,27.7c0,0,0,0.1,0,0.1c-0.5,0-1.1-0.1-1.6-0.1c0.6,2,2.9,1,4.3,1.9c-0.8-1.6-1.4-3.1-3.3-3.4
			c0.2-0.9,0-1.8-0.6-2.2c0,0.8-0.3,1.4-1.1,1.7C101.2,27.5,102.9,27.4,104,27.7z"/>
		<path class="st0" d="M103.5,39c0,0-0.1,0-0.1,0c-0.4,1.7,0.8,3.2,1.6,4.7c1.3-2.3,1.2-4.9-0.8-6.8c-0.6,1.2,0.2,2.4,0.6,3.6
			c0,0-0.1,0-0.1,0.1C104.2,40,103.8,39.5,103.5,39z"/>
		<path class="st0" d="M103,29.2c0.7,1.8,1.9,1.3,2.7,2.5c-0.7-0.2-1.2-0.4-1.8-0.6c0,1.9,2.3,2.1,3.6,2.8
			C107.4,30.9,105.9,29.8,103,29.2z"/>
		<path class="st0" d="M96.2,26c0.8,0,2,0.5,2.6,0.1c0-2.6-3.1-2.2-4.9-2.3C94.4,24.8,95.1,25.7,96.2,26z"/>
		<path class="st0" d="M87.2,62.7c-0.7-0.1-1.3-0.1-2-0.2c0,0.4,0,0.6,0.1,0.9c0.4,0.1,0.8,0.2,1.1,0.3c0.1,2.1-1.1,2.2-2.6,1.3
			C83.3,67.7,87.6,67.4,87.2,62.7z"/>
		<path class="st0" d="M85.7,54.1c-2.4,2.9-2.4,3.4,1.2,4.6c0-0.3-0.1-0.5-0.1-0.8c-0.7-0.2-1.4-0.5-2-0.9c0.5-0.6,0.9-1.1,1.3-1.6
			C86.1,55,85.9,54.6,85.7,54.1z"/>
		<path class="st0" d="M72.3,43.8c1-0.1,1.5-0.4,2.1-1.1c0.1,0.3,0.2,0.5,0.3,0.8c0.4,0,0.8-0.1,1.1-0.1c0.4-1.4-0.4-1.6-1.4-2.4
			C73.9,42.2,72.9,42.8,72.3,43.8z"/>
		<path class="st0" d="M81.3,46c-0.4,0.3-1.4,0.2-1.3,0.9c0,1,0,2.1,0,3.1c0,0,0.1,0,0.1,0C80.5,49,82.3,46.7,81.3,46z"/>
		<path class="st0" d="M98,23.6c0-0.1,0.1-0.1,0.1-0.2c-1-1.4-1.4-1.7-3.2-1.7C94.9,23.5,96.7,23.5,98,23.6z"/>
		<path class="st0" d="M96.1,21.2c-0.4-1.2-1.3-1.9-2.7-1.9C93.4,20.5,94.4,21.3,96.1,21.2z"/>
		<path class="st0" d="M89.4,32.1c-1.4-0.7-2.5,0.2-3.9-0.1C85.9,33.9,88.2,32.5,89.4,32.1z"/>
		<path class="st0" d="M94.2,18.7c-0.4-1-1.1-1.4-2.1-1.3C92.4,18.6,92.9,18.8,94.2,18.7z"/>
		<path class="st0" d="M92.8,16.7c-0.5-1.1-0.8-1.2-1.8-1.1C91.4,16.7,92,17.1,92.8,16.7z"/>
		<path class="st0" d="M86.5,51c0,0-0.1,0.1-0.1,0.1c0.3,0.6,0.7,1.1,1,1.7c1.3,0,0.2-1.1-0.1-1.5C87.1,51.1,86.7,51.1,86.5,51z"/>
		<path class="st0" d="M82.7,52.6c0.7-0.4,1.3-0.7,1.9-1.1c-0.1-0.2-0.2-0.3-0.4-0.6C83.7,51.5,82.3,51.6,82.7,52.6z"/>
		<path class="st0" d="M91.2,15c0.2-0.7-0.8-1.6-1.5-1.3C89.8,14.4,90.6,15.1,91.2,15z"/>
		<path class="st0" d="M26.2,25.9c-0.4,0.3,0.2,0.9,0.5,0.5C27.1,26.2,26.6,25.6,26.2,25.9z"/>
		<path class="st0" d="M27.2,27.5c0.4-0.3-0.2-0.9-0.5-0.5C26.3,27.3,26.9,27.8,27.2,27.5z"/>
		<path class="st0" d="M24.8,23l-0.8,0.1l0.4,1.1l0.6-0.7c0,0,0.1,0,0.1,0c0,0,0.1,1.5,0.1,1.5l0,0c0.2,1.3,2.1,0.5,1.3-0.5
			c0,0-1-1.1-1-1.1c0,0,0-0.1,0-0.1l0.9,0.1l-0.4-1.1l-0.7,0.5c0,0-0.1,0-0.1,0l-0.1-1.1c-0.3,0.1-0.8,0.3-1.1,0.4l0.7,0.8
			C24.8,23,24.8,23,24.8,23L24.8,23z"/>
		<path class="st0" d="M22.3,28.9c0.6,0,0.6-0.8,0-0.8C21.8,28,21.8,28.9,22.3,28.9z"/>
		<path class="st0" d="M22.2,30c0.6,0,0.6-0.8,0-0.8C21.7,29.1,21.7,30,22.2,30z"/>
		<path class="st0" d="M24,26.2c0.6,0,0.6-0.8,0-0.8C23.5,25.3,23.5,26.2,24,26.2z"/>
		<path class="st0" d="M22.7,27.9c0.6,0,0.6-0.8,0-0.8C22.2,27,22.1,27.9,22.7,27.9z"/>
		<path class="st0" d="M31.8,26.7c0.2,0.4,0.3,0.6,0.3,0.9c-0.2-0.1-0.4-0.3-0.7-0.6l0.1,1.5c0.2-0.3,0.3-0.4,0.5-0.5
			c0,1.4-1.1,1.9-1.5,0.9c-0.1-0.4,0.3-0.7,0.7-0.3c0.1-0.9-0.6-0.9-0.9-0.5c0.4-0.8,0.2-1.4-0.5-1.9c-0.5,0.8-0.3,1.3,0.3,1.9
			c-0.6-0.3-1.1,0.2-0.6,0.8c0.1-0.6,0.6-0.4,0.7,0c0.1,1.2-2.1,1.6-2.3,0.3c0.2-0.1,0.7-0.1,1.2,0.3L28.7,28
			c-0.2,0.5-0.5,0.7-0.9,0.9c0-0.4,0.3-1.3,0.3-1.3c-0.4,0.2-1.3,0.5-1.7,0.7c0,0,0.8,0.4,1.1,0.7c-0.4,0.1-0.7,0.2-1.2,0l0.7,1.3
			c0.1-0.6,0.5-0.9,0.7-1c0.7,1.1-1.1,2.3-1.9,1.4c-0.2-0.4,0-0.8,0.5-0.5c-0.1-0.8-0.8-0.8-1-0.2c0-0.9-0.2-1.4-1.1-1.6
			c-0.2,0.8,0.1,1.4,0.9,1.7c-0.5-0.1-1,0.4-0.3,1c0-0.5,0.5-0.6,0.7-0.2c0.4,1-0.8,1.4-1.7,0.4c0.2-0.1,0.4,0,0.7,0l-0.9-1.2
			c0,0.4,0,0.7-0.1,0.9c-0.2-0.2-0.3-0.4-0.3-0.9l-0.7,0.6c0.7,0.4,1.4,1.1,2.3,2.4c1.2-1.2,6.1-3.2,8-3.2c-0.2-1.6-0.1-2.6,0.1-3.3
			L31.8,26.7z"/>
		<path class="st0" d="M62.8,93.8c0.2-0.8-1.1-1.1-1.3-0.3C61.3,94.4,62.6,94.6,62.8,93.8z"/>
		<path class="st0" d="M62.7,88.5c0.2-1-1.4-1.4-1.6-0.3C60.9,89.2,62.5,89.5,62.7,88.5z"/>
		<path class="st0" d="M57.1,85.7c0.2-1-1.4-1.4-1.6-0.3C55.2,86.4,56.9,86.8,57.1,85.7z"/>
		<path class="st0" d="M65,96.3c-0.4-0.3-1-0.5-1.6-0.5c-0.3,0-0.6,0.1-0.8,0.3c1.7,0.7,1.1,3.3-0.6,3.3c-1.7,0-2.3-2.6-0.6-3.3
			c-0.2-0.2-0.5-0.3-0.8-0.3c-0.5,0-1.1,0.3-1.6,0.5c-0.5-0.6-1-1.3-1.9-1.4c0.5,4.7,2.7,7.1,4.8,7.1c2.2,0,4.3-2.4,4.8-7.1
			C66,95,65.5,95.6,65,96.3z M62,101.4c-1.6,0-3.4-1.7-4.1-5.5c0.2,0.2,0.4,0.4,0.6,0.7l0.3,0.5l0.5-0.3c0.2-0.1,0.4-0.2,0.6-0.3
			c-0.2,0.4-0.3,0.9-0.2,1.5c0.2,1.1,1.1,1.9,2.2,1.9c1.1,0,2-0.8,2.2-1.9c0.1-0.5,0-1-0.2-1.5c0.2,0.1,0.4,0.2,0.6,0.3l0.5,0.3
			l0.3-0.5c0.2-0.3,0.4-0.5,0.6-0.7C65.4,99.7,63.6,101.4,62,101.4z"/>
		<path class="st0" d="M51.4,82.5c0.7-0.9-1.8-2-2.2-2.5c-0.3-0.2-0.7-0.1-0.9,0.1c-0.7,0.8,1.8,2,2.1,2.4
			C50.8,82.8,51.2,82.7,51.4,82.5z"/>
		<path class="st0" d="M51.1,84.3c2.8,0,2.4-4.4-0.3-3.9c1.3,0.7,2.4,2.5,0.4,3c-0.7,0.2-1.5-0.6-2-1C49.1,83.4,50,84.3,51.1,84.3z"
			/>
		<path class="st0" d="M46.4,80c0.2,0.8,0.1,4.4,0.8,5.1c0.6,1.2,4.2,4.3,5.1,2.8c-1.7-0.9-4.7-3.1-3.6-5.8
			c-2.6-1.6-0.3-4.1,1.7-1.9c2.1-1.3,4.5-0.4,6.6,1.1c0.8-1.6-2.9-2.8-3.8-3.2c-1.1-0.4-4.5,0.4-5.6,0.5
			C46.9,78.5,46.3,79.2,46.4,80z"/>
		<path class="st0" d="M78.6,22.9l1.6,0.5c-2.5-5.3-7.1-9.2-12.6-10.6c-0.1,0.4-0.3,0.8-0.4,1.2C72.1,15.1,76.2,18.4,78.6,22.9z"/>
		<path class="st0" d="M46,23.4l1.6-0.5c2.4-4.4,6.5-7.7,11.4-8.9c-0.1-0.4-0.2-0.8-0.4-1.2C53.1,14.2,48.5,18.1,46,23.4z"/>
		<path class="st0" d="M75,14.9c1.1,0,1.1-1.8,0-1.7C73.9,13.1,73.9,14.9,75,14.9z"/>
		<path class="st0" d="M71,12.6c1.1,0,1.1-1.8,0-1.7C69.9,10.8,69.9,12.6,71,12.6z"/>
		<path class="st0" d="M68.8,11.8c1.1,0,1.1-1.8,0-1.7C67.7,10.1,67.7,11.8,68.8,11.8z"/>
		<path class="st0" d="M73.1,13.6c1.1,0,1.1-1.8,0-1.7C71.9,11.9,71.9,13.6,73.1,13.6z"/>
		<path class="st0" d="M76.8,16.3c1.1,0,1.1-1.8,0-1.7C75.6,14.6,75.6,16.3,76.8,16.3z"/>
		<path class="st0" d="M81.3,22.9c0,1.1,1.8,1.1,1.7,0C83,21.7,81.3,21.7,81.3,22.9z"/>
		<path class="st0" d="M80.2,20.8c0,1.1,1.8,1.1,1.7,0C82,19.7,80.2,19.7,80.2,20.8z"/>
		<path class="st0" d="M78.4,17.9c1.1,0,1.1-1.8,0-1.7C77.3,16.2,77.3,18,78.4,17.9z"/>
		<path class="st0" d="M79,18.9c0,1.1,1.8,1.1,1.7,0C80.7,17.7,79,17.7,79,18.9z"/>
		<path class="st0" d="M51.2,14.9c1.1,0,1.1-1.8,0-1.7C50.1,13.1,50.1,14.9,51.2,14.9z"/>
		<path class="st0" d="M49.4,16.3c1.1,0,1.1-1.8,0-1.7C48.3,14.6,48.3,16.3,49.4,16.3z"/>
		<path class="st0" d="M44.1,23.7c1.1,0,1.1-1.8,0-1.7C42.9,22,42.9,23.7,44.1,23.7z"/>
		<path class="st0" d="M53.2,13.6c1.1,0,1.1-1.8,0-1.7C52,11.9,52,13.6,53.2,13.6z"/>
		<path class="st0" d="M46.4,19.7c1.1,0,1.1-1.8,0-1.7C45.2,18,45.2,19.8,46.4,19.7z"/>
		<path class="st0" d="M45.1,21.7c1.1,0,1.1-1.8,0-1.7C44,19.9,44,21.7,45.1,21.7z"/>
		<path class="st0" d="M57.4,11.8c1.1,0,1.1-1.8,0-1.7C56.2,10.1,56.2,11.8,57.4,11.8z"/>
		<path class="st0" d="M47.8,17.9c1.1,0,1.1-1.8,0-1.7C46.7,16.2,46.7,18,47.8,17.9z"/>
		<path class="st0" d="M55.2,12.6c1.1,0,1.1-1.8,0-1.7C54.1,10.8,54.1,12.6,55.2,12.6z"/>
		<path class="st0" d="M64.6,20.7h1.2c0-3.7,0.5-6.8,1.5-8.9c0.3-0.7-0.7-1.2-1.1-0.5C64.8,14.3,64.6,18.4,64.6,20.7z"/>
		<path class="st0" d="M60.4,20.7h1.2c0-2.2-0.2-6.4-1.6-9.4c-0.3-0.7-1.4-0.2-1.1,0.5C59.9,13.8,60.4,17,60.4,20.7z"/>
		<path class="st0" d="M63.1,18.8c-1.2,0-1.2,1.9,0,1.9C64.3,20.7,64.3,18.8,63.1,18.8z"/>
		<path class="st0" d="M63.1,16.4c-1.2,0-1.2,1.9,0,1.9C64.3,18.3,64.3,16.4,63.1,16.4z"/>
		<path class="st0" d="M63.1,14.1c-1.2,0-1.2,1.9,0,1.9C64.3,16,64.3,14,63.1,14.1z"/>
		<path class="st0" d="M62.4,13.6c0.4-0.2,0.9-0.2,1.3,0C65.1,11.6,61.1,11.6,62.4,13.6z"/>
		<path class="st0" d="M62.4,11.7c0.4-0.3,1.1-0.3,1.5,0C64.9,9.7,61.3,9.7,62.4,11.7z"/>
		<path class="st0" d="M62.5,3.7C62.4,4.9,61.8,5.9,61,6v0.3h1.5c-0.1,0.1-0.1,0.1-0.2,0.2c-2.7,0.6-3,4.8-0.4,5.7
			c-1-1-0.2-2.9,1.2-2.8c1.4,0,2.2,1.8,1.2,2.8c2.6-1,2.3-5.1-0.4-5.7c-0.1-0.1-0.1-0.1-0.2-0.2h1.5V6c-0.8-0.1-1.4-1.1-1.6-2.3
			c1.2,0.2,2.1,0.8,2.3,1.6h0.3V1H66c-0.1,0.8-1.1,1.4-2.3,1.6c0.2-1.2,0.8-2.1,1.6-2.3V0H61v0.3c0.8,0.1,1.4,1.1,1.6,2.3
			c-1.2-0.2-2.1-0.8-2.3-1.6h-0.3v4.3h0.3C60.4,4.5,61.3,3.9,62.5,3.7z"/>
		<path class="st0" d="M100.3,70.6L100.3,70.6c-0.1-0.2-0.2-0.3-0.3-0.5C100,70.3,100.1,70.5,100.3,70.6z"/>
		<path class="st0" d="M99.5,72.4c-1.2-0.8-1.9,2.6-2.3,3.2c-0.2,0.5,0,1,0.4,1.2l-0.9,1.8c-0.5-0.1-0.9,0.3-0.9,0.8
			c0.2,0.7-0.5,3.8,0.7,3.9v0.9c-3.1,0.6-2.6,5.4,0.5,5.3c3.1,0.1,3.6-4.7,0.6-5.3l0-0.8c0.5,0.1,0.9-0.3,0.9-0.8
			c-0.2-0.7,0.5-3.7-0.6-3.9l0.7-1.4c1.2,0.6,1.8-2.6,2.3-3.2c0.2-0.5,0-1-0.4-1.1l0.5-1.1c-0.1-0.2-0.4-0.6-0.7-1.1L99.5,72.4z
			 M99,86.8c-0.7,4.3-6.3,0-2.3-1.8c0.2,0.4,0.8,0.4,1,0C98.4,85.3,99,86,99,86.8z M97.7,82.4c0.1-0.6-0.7-1-1-0.4
			c0.1-0.2-0.2-2.6,0.2-2.6c0.2,0.1,0.4,0.2,0.6,0c0.1,0,0.2,0.2,0.2,0.3l0,2.5C97.7,82.3,97.7,82.4,97.7,82.4z M100,73.9
			c-0.1,0.1-1,2.6-1.3,2.5c-0.1-0.2-0.4-0.3-0.6-0.3C98,76,98,75.9,98,75.7c0.2-0.2,1-2.7,1.3-2.5c0.1,0.2,0.4,0.4,0.6,0.3
			C100.1,73.6,100.1,73.8,100,73.9z"/>
		<path class="st0" d="M39.6,67c0,0,2.8-3.3,2.8-3.7l-4.8,0.5l0.1,0.8c0.2,0,2.8-0.4,2.8-0.4S38.1,66.9,38,67l0.3,1l4.8-0.6
			l-0.2-0.9C42.6,66.4,39.6,67,39.6,67z"/>
		<path class="st0" d="M39.7,73.1c2.3,2.2,6-1.3,3.6-3.6C41,67.3,37.3,70.9,39.7,73.1z M43,72c-1.1,1.8-4.4,0.8-3-1.4
			C41,68.8,44.4,69.9,43,72z"/>
		<path class="st0" d="M45.1,73.1c-0.9,1.1-2.6,2.3-3.9,2.8L42,77c0.3-0.5,1-1,1.5-1.4l1.2,1.7c-0.5,0.4-1.2,0.9-1.8,1l0.8,1.1
			c0.9-1.1,2.6-2.3,3.9-2.8l-0.8-1.1c-0.3,0.5-1,1-1.5,1.4l-1.2-1.7c0.5-0.4,1.2-0.9,1.8-1L45.1,73.1z"/>
		<path class="st0" d="M37.6,60.6l-0.1,1c1.4-0.3,3.6-0.3,4.9,0l0.1-1C41.2,60.9,39,60.9,37.6,60.6z"/>
		<path class="st0" d="M76.8,81.7L76.8,81.7l0.5,0.6c2.9-1.3,2.3-4.2-1-2.9c-1.4-0.4,0.4-1.8,1.3-1.5l0,0l-0.7-0.8
			c-1,0.5-2.7,1.9-1.8,3c0.6,0.8,1.9-0.1,2.7,0C79.1,80.4,77.6,81.8,76.8,81.7z"/>
		<path class="st0" d="M85.3,72.2l0.8-2.8c-0.4,0-4.2-1.1-4.6-1.3l-0.8,2.7l0.8,0.7l0,0c-0.1-0.6,0-1.3,0.2-2.1l1.4,0.4
			c-0.1,0.4-0.4,1.4-0.6,1.6l0.7,0.1l0.5-1.6l1.4,0.4c-0.2,0.5-0.4,0.9-0.7,1.2L85.3,72.2z"/>
		<path class="st0" d="M83.9,75.1l-3.8-2.5l-0.4,0.8c0.1,0.2,2.6,1.6,2.6,1.6s-4,0.5-4.2,0.8l3.8,2.6l0.4-0.6
			c-0.2-0.1-2.3-1.5-2.3-1.5s3.3-0.4,3.4-0.3L83.9,75.1z"/>
		<path class="st0" d="M73,85.1l2.6-1.5c-0.3-0.3-2.4-3.6-2.4-4l-2.5,1.4l0.1,1l0,0c0.4-0.5,0.9-0.9,1.7-1.4l0.8,1.3
			c-0.4,0.2-1.3,0.7-1.6,0.8l0.5,0.6l1.4-0.8l0.7,1.2c-0.5,0.3-0.9,0.4-1.4,0.4L73,85.1z"/>
		<path class="st0" d="M44.8,47.3v-0.9c-3.4-0.2-3.4,5.2,0,5.1v-0.8C42.7,50.5,42.2,46.8,44.8,47.3z"/>
		<path class="st0" d="M55.6,39.7c-1.8,1.9,0.6,4.9,2.9,3.6c0.8,0.4,1.7,0.7,2.4,0.1l0,0c-0.4-0.1-0.8-0.4-1.4-0.8
			C61.3,40,57.5,37.4,55.6,39.7z M58.1,42.6c-1.6,0.7-3.2-2.2-1.4-2.9C58.4,39.1,59.9,41.9,58.1,42.6z"/>
		<path class="st0" d="M64.4,38.5c0.3,0.7,0.2,2.2,0.2,3c0,0.6-0.5,0.9-1.1,0.9c-1.4,0.2-0.9-3.2-0.7-3.9h-1.6
			c0.3,0.7,0.2,2,0.2,2.8c-0.1,1.9,1.8,2.4,3.2,1.4c0,0.2,0,0.4,0,0.5h1.4c-0.4-1.3-0.4-3.5,0-4.7H64.4z"/>
		<path class="st0" d="M68.4,43.7c0.3-1.2,0.7-3.1,1.3-4.1l-1.3-0.4c0,1.2-0.7,3.2-1.1,4.4C67.9,43.6,67.9,43.6,68.4,43.7z"/>
		<path class="st0" d="M23,29.5l0.3-0.2c0.1-1.2,0.7-2.2,1.6-2.9c-0.1-0.1-0.1-0.2-0.2-0.2C23.6,26.9,23,28.2,23,29.5z"/>
		<path class="st0" d="M25.7,27.9l0.3-0.1c-0.2-0.5-0.6-1.4-1.1-2c-0.1-0.1-0.3,0.1-0.2,0.2C25,26.4,25.4,27,25.7,27.9z"/>
		<path class="st0" d="M23.3,26.9c0.6,0,0.6-0.8,0-0.8C22.7,26.1,22.7,26.9,23.3,26.9z"/>
		<path class="st0" d="M31.3,25.1c0.4-0.4-0.2-1-0.6-0.6C30.3,24.9,30.9,25.5,31.3,25.1z"/>
		<path class="st0" d="M32.1,25.8c0.4-0.4-0.2-1-0.6-0.6C31.1,25.6,31.8,26.2,32.1,25.8z"/>
		<path class="st0" d="M28.2,24.4c0.4-0.4-0.2-1-0.6-0.6C27.2,24.3,27.8,24.9,28.2,24.4z"/>
		<path class="st0" d="M30.3,24.7c0.4-0.4-0.2-1-0.6-0.6C29.3,24.5,30,25.1,30.3,24.7z"/>
		<path class="st0" d="M31.3,26c-1-0.9-2.3-1.4-3.6-1.1c0,0.1,0,0.2,0,0.3c1.1-0.2,2.2,0.1,3.1,0.9L31.3,26z"/>
		<path class="st0" d="M28.1,26.8c-0.4-0.8-0.6-1.5-0.6-2.1c0-0.2-0.3-0.2-0.3,0c0,0.8,0.4,1.7,0.6,2.2L28.1,26.8z"/>
		<path class="st0" d="M29.3,24.4c0.4-0.4-0.2-1-0.6-0.6C28.3,24.2,28.9,24.8,29.3,24.4z"/>
		<g>
			<path class="st0" d="M84.9,51.1c5.9,11,2,25.5-8.3,32.5c-3,1.8-6.7,4.8-10.3,2.8c2.3-8.9,13.3-5.2,15.7-22.2
				c-0.3-0.1-0.4-0.2-0.7-0.3c-0.3,2.4-0.9,4.7-1.8,6.9c1-2.5,0.3-10.5,0.5-10.9c-0.1-0.1-0.2-0.2-0.5-0.6c0.1,1,0,1.3,0,2.6l0,0.5
				c1.4,12.8-6.1,17-16.7,21.5c0,0-0.5,0.4-0.5,0.4c-3.5-0.2-5.9-4-9.3-4c4.9,2.9,13.8,9.8,19.4,6.8c0,0.1,0,0,0.1,0.1
				c-0.6,0.7-2.7,2.1-3.6,1.8c-1.5-0.9-3.9,0.8-2.8,2.5c0.1,0.2,0.2,0.4,0.1,0.6c-6.1-0.6-11.5-4.2-16.7-7.3c-0.1,0.1,0,0-0.1,0.1
				c2,2.6,9,5.9,9,5.9l0,3.9c0,0,0.4,0.3,0.7,0.5v-4.3c1.8,0.6,5.6,1.8,5.6,1.8l0,2.7l0.7-0.5l0-2l1-0.3c0.6-0.2,1-0.8,1-1.4
				c-0.3-0.1-0.5-0.5-0.4-0.9c0.1-0.8,1.1-0.8,1.5-0.3c0.8,0.3,1.5-0.6,2.3-0.8c1.1-0.6,2.4-1.2,2.9-2.4c0.1-0.3,0.3-0.5,0.5-0.6
				c2.1-1.2,4.2-2.5,5.9-4.3c7.4-6.3,10-17.1,7.6-26.4C87.1,54.7,86.2,50.1,84.9,51.1z M63.1,85.1c1.2-1.1,2-1.4,3.5-1.8
				c-0.4,0.9-0.8,1.8-1.2,2.8C64.7,85.8,63.9,85.5,63.1,85.1z"/>
			<path class="st0" d="M45.3,52.8h0.5v-8.4h33.4v9.8c0,0.1,0.1,0.5,0.1,0.7c0.2-0.4,0.3-0.3,0.4-0.5V43.9h-28c-0.5-0.9-1-1.6-1-1.6
				c0.5-0.3,1.6-0.8,2.1-0.7l-1.2-0.9L48,42.9l0.3,1h-3L45.3,52.8z M49.7,43c0.1,0.2,0.3,0.5,0.5,0.9h-1.5
				C49,43.5,49.3,43.2,49.7,43z"/>
			<path class="st0" d="M107.8,55.6l-0.3,0l-0.7-2c0.3-0.4,0.5-1.1,0-1.5c-0.7-0.3-2.7-2.6-3.3-1.1c-0.3,0.1-1.8,0.2-2,0.5
				c-0.8-1.2-1.4-2.5-1.9-3.9c0.3-1.6,4.7-3.7,4.7-3.7s-1.2-1.8-1.7-2.8c-0.2,0.5-0.4,0.3-0.9,0.5c2.4-4.3,2.9-10-0.3-14
				c-0.3-0.7-0.2-1.6-0.5-2.3c-0.6-0.7-0.9-2.2-1.9-2.3c0,1.3-0.1,2.5,0.5,3.7c0.7,0.8-0.9,1.5-1.4,0.9c0.9-0.1,1.1-0.3,0.8-0.8
				c-4-0.9-6.2,1.9-10.1,2.4c-0.3,0-0.6,0.1-0.8,0.4c-2.4,3.2,2.9,1,3.4,3.1c-0.9,0.7-1,0.2-1.8,0c-1.2,0-2.3,0.4-0.9,1.4
				c-0.9,1.4-0.9,1.9-2.7,2c0.8,1.1,0.6,2.8,0.8,4c-1.3,0.2-2.2,0.9-2.2,2.3c-0.6,0.1-1.2-0.2-1.6,0.5c-0.8-0.7-1.8-0.8-2.8-0.8
				c-0.5-0.4-1.6-1.2-2.9-1.8c0.2-0.9,0.5-1.8,0.7-2.6c0.4-0.2,1.7-1.1,2-1.3c-0.2-0.4-0.9-1.8-1.1-2.1c2.4-8.1,3.1-8.6,4.3-8.7
				l0.1-0.2L79,23.8l-0.1,0.3c1.1,0.8,1.5,2.1,1,3.7c-1.2-0.5-1.8-1.6-1.7-2.6c0,0-0.3-0.1-0.3-0.1l-1.5,4.8c0,0,0.2,0.1,0.2,0.1
				c0.6-0.8,1.6-1.3,2.7-1.1c-1.3,4.3-7.4,3-6.3-0.7c0.8-1.5,2.2-0.5,1.5,1c3.4-1.2,1.4-6.1-1.5-3.2c1-2,1.5-3.5,0.3-5.4
				c-1.6,1-2,2.8-1.7,5.3c-1.9-4.4-5.3,0.1-2.6,2.4c-0.5-3.3,3.5-1.1,0.8,1.5c-2.6,1.8-5.8-0.3-5.9-3.5c1.5,0.1,2.6,1,2.8,2.1
				c0,0,0.3,0,0.3,0l0.2-5.5c0,0-0.3,0-0.3,0C66.7,24,65.5,25,64,25c0.1-1.7,1.1-3,2.4-3.3c0,0,0-0.3,0-0.3h-6.4c0,0,0,0.3,0,0.3
				c1.3,0.2,2.2,1.6,2.4,3.3c-1.5,0-2.8-1-3-2.1c0,0-0.3,0-0.3,0l0.2,5.5c0,0,0.2,0,0.3,0c0.2-1.1,1.3-2,2.8-2.1
				c-0.1,3.2-3.3,5.4-5.9,3.5c-2.7-2.6,1.3-4.8,0.8-1.5c2.7-2.3-0.6-6.8-2.6-2.4c0.3-2.4-0.1-4.3-1.7-5.3c-1.2,1.9-0.7,3.5,0.3,5.4
				c-2.9-2.9-4.9,2-1.5,3.2c-0.7-1.6,0.8-2.5,1.5-1c1.1,3.6-5,5-6.3,0.7c1.2-0.2,2.2,0.3,2.7,1.1c0,0,0.2-0.1,0.2-0.1l-1.5-4.8
				c0,0-0.3,0.1-0.3,0.1c0.1,1-0.5,2.1-1.7,2.6c-0.5-1.6-0.1-2.9,1-3.7l-0.1-0.3l-4.4,1.4l0.1,0.2c1.2,0.2,2,0.6,4.3,8.7
				c-0.2,0.4-0.9,1.8-1.1,2.1c0.3,0.2,1.7,1.1,2,1.3c0.2,0.7,0.4,1.5,0.6,2.4c-5.9,2.7-4.5,4.6-9.1,4.1c-0.4,0.9-0.8,1.9-1.7,2.5
				C38,45.1,37.3,44,36.5,43c-0.4-0.5-1,0.1-1.6,0.1c-1.2,2.7-2.1,0.3-4.2,1.7c0.1,1.2,0.3,2.5,1,3.6c-1.6-0.1-2.9-0.5-4-1.3
				c-4.8,5.4-9.8,10.5-13.9,16.4c-2.2,2.9-8.1,1.2-6.5-2.8c0.7-2.9,4.9-2.3,4.7,0.6c2.1-2.3,0.7-4.6-2.4-4.1
				c2.9-1.3,4.7,1.1,7.3-2.2c-2,0-3.7-0.6-5.7-0.1c2.5-1.5,6,0.7,8.2-3.5c-1.9,0.2-3.6,1-5.5,1.3C25.3,41.6,14,41,15.5,36.2
				c-0.9,0.8-1.4,1.6-1,2.6c-2.6-1.1-6.5-0.8-7.6-4C6.6,39.4,8.6,39,12,40c-1.6-0.2-3.1-0.2-4.6-0.7c0.3,2,1.9,2.5,3.7,2.3
				c-1.8,1-1.4,3.5,0.4,4.4c-1.2-6.6,8.7-4.3,4.2,1.7c-2.1,3.1-5.1,5.4-7.6,8.1c-0.5-0.8-1-1.7-2.1-1.5c1.9,2.2-0.2,4.7-0.8,7
				C4.5,64,7,66.4,9.7,66.8c-1.1,1.3-1.2,2.4-0.3,3.4c0.8-4.2,6.9-3.2,7.4-7.8c0.1-0.5,0.4-0.9,1-1.2c-2.7,3.1,3.8,9.6-2.3,10.4
				c-0.9,0-1.1,1-0.6,1.6c-2.5-0.1-3.3,0.8-3.6,3.2c1.1-0.3,2.2-0.6,3.2-0.8c-1.1,2.9-3.6-0.2-3.2,5c1-0.5,2-1,2.9-1.6
				c0.9,2.9-4.6,1.6-0.5,6.3c0.3-0.9,1.4-2.6,1.9-3c-0.5,1.5-0.4,3.1,1.2,3.8c0.1-0.4,0.1-0.7,0.2-1.1c0.1,0,0.1,0,0.1,0
				c0.2,1,0.3,2.3,1.2,2.9c0.3,0.1,0.5,0.3,0.6,0.6c0.2,0.5,0.7,0.7,1.2,0.7c0.6,0.1,0.8-0.6,1.2-0.8c0.1,0.8,1,0.9,1.5,1.5
				c0.3-3.8-4.7-2.4-3.5-4.9c0.4,1.5,1.9,1.2,2.9,1.8c0.4,0.6,1.3,1.2,1.8,0.3c0.5,0.3,0.9,0.7,1.3,1c-1-4.5-3.3-1.7-4.8-4.1
				c1,0,2.1,1.6,3.2,0.5c0.6,0.6,1,1.3,1.5,2c0.2-1.4-0.4-2.5-1.5-3.3c-1.3-0.8-3,0.6-4.1-0.9c-1.5-1.8-1.4-4.4-0.7-6.5
				c0.7-1.6,2.7-2.2,3.6-3.8c-0.3,1.4-0.1,3.7,1.4,4.2c-0.4-2.5,1.4-4.8,1.8-7.3c0.5-0.6,0.5-1.1,0.1-1.8c-0.8-1.3-1-2.8-1.8-4
				c-1.3-1.8-2.9-1.9-0.3-3.8c-1.6,2.5-0.3,1.6,1.1,4c0.3-0.8,1.5-1.9,0-1.8c-2.4-1.2,3.1-4.2,4.3-4.3c1.2-0.1,2.9,0,3.8-1.2
				c-0.6-1.1-1.1-1.2-0.2-2.4c-0.7-0.4-1.2-0.8-1.4-1.7c-0.6,0.2-1.2,0.4-1.8,0.6c0.6-0.7,2.3-2,2.5-0.5c0,0.8,0.9,1,1.5,1.2
				c-0.5,0.7-1.3,1.4-0.5,2.2c0.5,0.5,0.8,1.5,1.6,1.7c0.2-0.8,0.4-1.5,0.6-2.3c1.7,1.8-1.7,2.8,3,4.4c-0.2-1-0.3-1.9-0.2-2.9
				c2.3,1.9-1,3.1,4.3,3.7c-0.6-0.7-0.7-1.5-0.9-2.2c0.9,0.1,1.6,1,2.1,1.6c0.5,0.8,0.9,1.3,2.2,0.5c0.1,0.1,0.1,0.3,0.2,0.4
				c0.6,0.4,0.3,0.9,0.3,1.5h0c0,0,0,0.2,0,0.2l-0.4-0.2c0-0.8,0-1.3,0-1.3l-0.5,0c-0.4,1.3,0.7,12.2,2.5,14.1
				c-3.6-3.5-4.7-9.7-4-14.3c0,0-0.3-0.3-0.7-0.6c-1.1,6.6,1.4,13,5.9,17.7c0.4,0.4,0.8,0,1.3-0.2c-0.1-0.1-0.3-0.3-0.5-0.5
				c0.2,0.2,0.3,0.4,0.5,0.5l-0.3-0.7c-3.6-2.8-4.2-10.6-4.3-14.2l0.6-0.5c0,0,0,0,0,0h0c0.7-0.7,0.8-1.6,0.6-2.5
				c-0.5-1.7-2.6-0.4-3.4-2.1c1,0.7,2,1.1,3.1,0.5c0.6,0.6,0.9,1,1.2,1.8c0.5-1.9-0.1-3.8-2.1-3.2c-0.6,0.2-0.9,0.2-1.5-0.4
				c0.9,0.3,1.5-0.2,2.1-0.6c0.1,0.2,0.2,0.4,0.3,0.4c0.6,0,0.9,0.4,1.3,0.8c0.2-1.6-1.4-2.9-3-2.5c-0.4,2-2,0.9-3.4,0.6
				c-0.4-0.2-0.8-0.5-1.1-0.8c0.1,0.1,0.3,0.1,0.5,0.1c0.4,0,1.5-0.7,1.9-0.8c0.9-0.2,0.6,1.1,0.1,1.4c0.3,0,0.6-0.1,0.8,0
				c0.5-0.7,0.9-1.8,0.1-2.4c-0.8-0.6-1.8,0.5-2.6,0.7c-1.4,0.1-0.3-1.6,0.5-1.7l0,0l-0.7-0.5c-0.9,0.4-1.5,1.8-1.2,2.7
				c-1.1-1.2-2-2.5-3.2-3.5c0.2-2.2-1.7-4-3.9-3.8c2-0.9,4.3,0.8,4.5,2.9c0.1,0.8,0.6,1.4,1.1,2c6.7-13.5,28.4-17,40.8-8.5l0,0
				c1.1,1,2.2,1.8,3.3,2.8c0.4-1.3,0.2-2.8,2.1-2l0.4-0.2c-0.4-1.1,0.4-2.3,1.6-2.4v0.8c-0.5,0.1-0.9,0.6-0.8,1.1
				c0.4-0.1,0.7,0.4,0.5,0.8c0.4,0.2,0.9,0.1,1.1-0.2c0.3,0,0.6,0,1,0.1c-0.4,1-2,1.4-2.8,0.6l0,0c0.2,0.2-0.6,2.5-0.6,2.8
				C85,46.8,84.7,47,84.4,47c0.1,0.2,0.3,0.4,0.4,0.6c0.5-0.3,1.3-0.3,1.2-1.1c0.1-0.4-0.2-2.5,0.4-2.3c0.3,0.8-0.2,1.6,0.3,2.4
				c1.8-0.4,1-2.1,3.2-2.5c0.9-0.1,2.7-0.5,3.2,0.4c-1.9-0.5-4.4,0-4.8,2.2c-2,0.5-3.6,1.9-5.7,1.9c-1.7,0.1-2.1,2.1-2.2,3.5
				c-0.3,1.6-0.4,3.2-1.1,4.7c-0.3,0.6-0.1,1.2,0.1,1.7c0.6,0.3,1.1,2.6,1.2,3.4c0,1.5,2.5,1.9,3.5,2.8c0.3-1.8-3.2-1.3-2.7-3.8
				c0.6,1.7,1.9,2,3.4,2.9c-0.5-1.7-0.6-4.5-3-4.2c-0.9-1.3,0.4-1.3,0-2.9c0.7,0.2,1,0.4,1.2,0.9c-0.2-0.1-0.4-0.1-0.7-0.2
				c0.1,1.1,1,1.3,1.7,2.1c-0.1-1.8-0.3-2.9-1.9-3.7c-0.9-0.9,0.1-2.8,0.1-4c0-0.3,2.2-1.5,2.5-1.4c1.6,0.2,3.4,0,5,0.4
				c1.6,0.5,0.2-3,2.8-1.1c-1.9-0.5-0.7,1.5-2.1,1.6c-0.9,0-1.7-0.1-2.7-0.1c3.4,7.5,10.9,5.3,12.9,12c1.7-1.5,0.6-1.5,0.1-3.1
				c3.9,2.6-3.6,5.6-0.8,10.2c-0.2-0.5,1.6-2.6,1.8-3.1c0.3-0.5,0.9-0.5,1.2-0.2l0.6-1.2c-1-0.6,0.8-3,1-3.7c0.2-0.4,0.6-0.6,1-0.4
				l0.5-1.5c-1-0.3-0.2-2.7-0.3-3.3c-1.4-1.3-2.5-2.8-3.6-4.3l0.7-0.1c-0.1,0.3,0,0.7,0.3,0.9c0.5,0.2,2.3,2,2.9,1.5l0.3,0.8
				c-0.5,0.1-0.5,0.8-0.5,1.2c0.2,0.2,0.5,0.4,0.8,0.6c0-0.2,0-0.9,0.1-1c0.2,0.3,0.6,0.3,0.9,0.1c0.2,0.1-0.1,1.7,0,1.9
				c0.3,0.3,0.5,0.6,0.8,0.9C108.1,58.5,109,55.8,107.8,55.6z M88.2,30.3c0.3,0,0.5,0,0.7-0.1c-0.5-0.4,0-0.8,0.4-0.5
				C90.3,30.4,88.3,31.7,88.2,30.3z M49.1,37.4l-2.1-1.3l1.1-2.2l3,1.1L49.1,37.4z M55.8,35.7c-3.2,0.7-3.9-2.9-0.7-3.5
				C58.4,31.5,59.1,35.1,55.8,35.7z M63.1,35.4l-3.2-2.2l3.2-2.2l3.2,2.2L63.1,35.4z M73.2,34.4c-0.4,2.3-5.4,1.3-5-1
				C68.6,31.2,73.7,32.2,73.2,34.4z M75.1,34.9l3-1.1l1.1,2.2l-2.1,1.3L75.1,34.9z M99.5,24.5c0.6,0.6,0.8,1.3,0.8,2.1
				C99.8,26.5,99.5,25.9,99.5,24.5z M96.8,28.7c-0.8,0.5-1.5,1.3-2.3,0.3c-0.2,0-0.3,0.1-0.5,0.1C95.2,27.3,95.1,27.6,96.8,28.7z
				 M90.3,35.4c0.5,0.2,1,0.5,1.5-0.1c-0.5,0-0.7-0.4-0.8-0.7c-0.2-1.7,2.6-1.1,3.6-1c2.6,1.6,7.2,0.6,5.6-3.2
				c1.2,0.8,0.8,2.9-0.1,3.7c-2.4,1.3-4.8,0.3-7.2,2.9c-0.4-1.2-1.8-1.1-2.3,0.2c-0.5,0-0.6,0-1,0.1C89.5,36.5,90.1,36,90.3,35.4z
				 M99.5,46.7c-0.1,0.1-0.3,0.4-0.3,0.4c-2-2.3-8.9-5-11.9-4.6c0,0,0-0.3,0.1-0.5l0,0l1.1-0.7l-1-0.8c0-0.1-0.6-4-0.6-4l1.7-0.1
				c0,0-0.6,0.7-0.6,1.3c0.1,0.1,0.2,0.2,0.2,0.3c0.3-0.1,0.7-0.9,0.7-0.9l0.2,2.3c0,0-0.5-0.7-0.8-0.8c0,0.1-0.1,0.2-0.1,0.2
				c0.5,1.5,2.7,1.6,2.7,0.3c-0.1-0.7-0.8-0.6-0.8,0.2c-1.2-1,0.4-2.5,1.1-1c-0.1-0.9,0-1.4,0.7-1.9c0.5,0.6,0.4,1.1-0.1,2
				c1.5-1.4,2.1,1,0.7,1.3c0.7-1.2-1.3-0.9-0.6,0.5c0.7,1,2.3,0.9,2.9-0.2c0-0.1-0.1-0.1-0.1-0.2c-0.6-0.1-1.4,0.4-1.4,0.4l0.8-2.1
				c0,0,0.3,0.9,0.8,1.2c0.1-0.1,0.2-0.1,0.3-0.2c0.1-0.6-0.5-1.4-0.5-1.4l2.6,1c0,0-1,0.3-1.4,0.7c0.1,0.1,0.1,0.2,0.1,0.3
				c0.5,0.1,1.4-0.3,1.4-0.3l-0.9,2.1c0,0-0.3-0.9-0.8-1.2c-0.1,0-0.1,0.1-0.2,0.1c-0.4,1.2,0.7,2.4,1.9,2.1
				c1.4-0.4,0.3-2.1-0.1-0.7c-0.8-1.2,1.3-2.5,1.4-0.5c0.3-1,0.6-1.4,1.3-1.5c0.2,0.8-0.1,1.2-0.8,1.8c1.6-0.7,1.7,1.6,0.1,1.4
				c0.5-0.5,0.1-1.1-0.5-0.6c-0.9,1,0.8,2.4,2.2,1.7c0-0.1,0-0.2,0.1-0.2c-0.3-0.2-1.1-0.3-1.1-0.3l1.7-1.2c0,0-0.2,0.8,0,1.1
				c0.1,0,0.3,0,0.4,0c0.4-0.4,0.4-1.3,0.4-1.3l1.3,1.6c0,0-3.1,1.4-3.7,1.9l-0.9-0.1L99.5,46.7L99.5,46.7z M105.7,53.8
				c0,0-0.1,0-0.1,0l-1.8-1.3c-0.1-0.1-0.2-0.2-0.1-0.4c0.3,0,0.7-0.2,0.7-0.6c0.1,0.2,2.1,1.2,2,1.6
				C105.9,53.1,105.5,53.4,105.7,53.8z"/>
		</g>
		<g>
			<polygon class="st0" points="31,92.5 31.9,92.3 31.3,91.4 			"/>
			<path class="st0" d="M27.5,91.4c0,0.2,0.1,0.5,0.1,0.6l0.3,1.4c0.1,0.4,0.1,0.5,0.2,0.8c1-0.3,1.2-1.1,1.1-1.7
				C29,92.1,28.6,91.3,27.5,91.4z"/>
			<path class="st0" d="M47.4,86.3C47.4,86.3,47.4,86.3,47.4,86.3c-9.4,0-18.9,4-28.3,4c-1.1,0-2.3-0.1-3.4-0.2
				c2.9,2.3,2.7,6.9,7,6.9c0.2,0,0.4,0,0.6,0c5.8-0.6,11.5-2.2,17.2-3.2c1-0.1,5.7-1.3,8.5-1.3c1,0,1.7,0.2,2,0.6
				c0.3,0.5-1.6,2.1-1.6,2.2c0,0,0,0,0,0c0.2,0,1.2-0.6,2-1.1C54.4,92.1,47.9,86.3,47.4,86.3z M28.3,94.5l-0.8,0.2
				c0-0.2,0.1-0.4-0.1-1.1l-0.3-1.5c-0.1-0.5-0.3-0.8-0.3-0.9c0.1,0,0.2-0.1,0.4-0.1c0.6-0.1,1.4-0.2,2.1,0.4c0.3,0.3,0.5,0.6,0.6,1
				C29.9,93.4,29.4,94.3,28.3,94.5z M32.7,93.7c0-0.2-0.1-0.3-0.3-0.6l-0.3-0.4l-1.2,0.2l-0.1,0.4c0,0.1-0.1,0.5,0,0.7l-0.9,0.2
				c0.1-0.2,0.2-0.3,0.3-0.9l0.8-2.9l0,0l1.7,2.3c0.4,0.5,0.6,0.7,0.7,0.8L32.7,93.7z M38,92.7c0.1-0.3,0.1-0.6,0-0.9l-0.3-1.7
				l-0.9,1.7l-1.5-1.2l0.3,1.8c0,0.1,0.1,0.4,0.3,0.8l-0.8,0.2c0-0.2,0.1-0.4,0-1l-0.4-2.2l-0.4-0.3l0.8-0.2
				c0.1,0.1,0.2,0.2,0.4,0.4l1.2,1l0.8-1.5c0.1-0.1,0.1-0.2,0.2-0.4l0.7-0.1c-0.1,0.2-0.2,0.4-0.1,0.9l0.3,1.7
				c0,0.3,0.1,0.6,0.3,0.9L38,92.7z M39.2,92.4c0-0.2,0.1-0.4-0.1-1l-0.3-1.7c-0.1-0.4-0.2-0.6-0.3-0.8l0.8-0.2c0,0.2-0.1,0.4,0,1
				l0.3,1.6c0.1,0.4,0.1,0.6,0.3,0.9L39.2,92.4z M42.4,91.8c0-0.2,0.1-0.4,0-1l-0.1-0.6l-1.5,0.3l0.1,0.6c0.1,0.6,0.2,0.8,0.3,1
				l-0.8,0.2c0-0.2,0.1-0.4,0-0.9L40,89.5c-0.1-0.5-0.2-0.7-0.3-0.9l0.8-0.2c0,0.2-0.1,0.4,0,0.8l0.1,0.7l1.5-0.3L42,89.1
				c-0.1-0.5-0.2-0.7-0.3-0.9l0.8-0.2c0,0.2-0.1,0.4,0,1l0.3,1.6c0.1,0.6,0.2,0.7,0.3,0.9L42.4,91.8z M43.6,91.6
				c0-0.2,0.1-0.4-0.1-1l-0.3-1.7c-0.1-0.4-0.2-0.6-0.3-0.8l0.8-0.2c0,0.2-0.1,0.4,0,1l0.3,1.6c0.1,0.4,0.1,0.6,0.3,0.9L43.6,91.6z"
				/>
		</g>
		<g>
			<path class="st0" d="M98.4,93.1c-0.2,0.9,0.4,1.5,1,1.6c0.7,0.1,1.2-0.5,1.3-1c0.1-0.7-0.3-1.5-1-1.7
				C99.1,92,98.5,92.4,98.4,93.1z"/>
			<path class="st0" d="M77.4,87.9c-0.1,0.2-0.1,0.4-0.1,0.6L77,89.8c-0.1,0.4-0.1,0.5-0.1,0.8c1,0.1,1.4-0.6,1.5-1.1
				C78.5,89,78.4,88.3,77.4,87.9z"/>
			<path class="st0" d="M119.9,55.3c-1.1,0.3-1.5,1.2-1.9,2.3c-2.7-4.3-7.9-7.2-8.7-12.4c0.6-4.2,6.1-3.2,5,1.1
				c2.9-1.5,1.5-4.4-1.2-4.9c2.9,0.2,4.5,2.7,6.5-1.4c-1.7,0.6-4.4,0.2-5.3,0c3.7-0.5,5.6-0.5,5.5-5c-1.2,2.7-4.7,2.8-7.2,3.6
				c0.2-1.2-0.2-1.9-1.2-2.3c1,6.6-11.6,4.5,2.2,18.8c-1.7-0.9-3.7-0.6-5.3-1.7c1.3,3.4,3.4,2.8,6.3,4c-3,0-4,2.9-1.7,4.4
				c-0.6-2.3,2.6-3.9,4.1-2.1c3.6,4.6-3,11-8.8-0.5c0,0.6-0.4,1.2-1,1l-0.7,1.8c1.3,0.5-0.7,3.1-0.9,3.8c-0.2,0.5-0.7,0.6-1.1,0.4
				l-0.6,1.3c0.8,0.7-1.4,2.8-1.6,3.5c-0.3,0.4-0.7,0.5-1,0.3l-0.2,0.5c0,0.1,0.1,0.1,0.1,0.1c1.5,1.7,2.1,3.1,1.7,4.9
				c1.2-1,1.7-3.9,0.8-5.4c1.1,1.1,2.6,1.9,3.3,3.4c0.6,2.6,0.1,5.2-1.6,7.3c-0.8,0.8-0.6,1.2-0.6,2.1c-0.5,1.5-2.3,1.6-2.9,2.8
				c-0.5,1.1-1.2,2-1.6,3.1c-5.7-0.7-11.4-2.3-17.2-3.2c-1.8-0.3-3.3-0.5-4.5-0.5c-2.6,0-4.4,1.1-6.6,5.7c-0.9,1.7,2.1,3.4,2.8,3.4
				c-2.5-2.1-1.6-2.8,0.3-2.8c2.7,0,7.5,1.2,8.5,1.3c5.7,0.9,11.5,2.5,17.2,3.2c0.2,0,0.4,0,0.6,0c4.3,0,4.1-4.6,7-7
				c-0.5,0-2.2,0.1-3.9,0.1c-1.2,0-2.3,0-2.9-0.1c-0.5,0-0.9-0.1-1.4-0.2c1.9-0.4,1.6-3.1,3.5-3.7c-0.8,1.2-1.5,2.2-2,3.6
				c1.6-0.4,4.6-0.8,4.1-3.1c-0.4-1,0.6-1.7,0.6-2.7c1.3-0.4,1-1,1.6-1.9c0.3,0.6,0.3,1.1,0.3,1.7c-0.2-0.3-0.3-0.5-0.4-0.8
				c-0.9,1.2-0.1,2.4-0.3,3.7c4.4-3.9-1.4-3.9,3.1-12.6c1-1.7-3-1.5-3.3-5.4c-0.3-1.7,1.2-3.1,1.5-4.7c1.7,3.1,7.8,3,7,7
				c1.2-0.9,1.2-2.6,0.7-3.9C122.8,65.2,117.9,59.4,119.9,55.3z M77,90.9l-0.8-0.1c0.1-0.2,0.2-0.4,0.3-1l0.3-1.4
				c0.1-0.5,0-0.7,0-0.9c0.1,0,0.2,0,0.3,0c0.6,0.1,1.3,0.3,1.7,1c0.2,0.4,0.2,0.7,0.1,1C78.8,90.5,78,91.1,77,90.9z M80.6,91.6
				l-1.7-0.3c0.1-0.2,0.2-0.4,0.3-0.8l0.3-1.6c0-0.2,0.1-0.5,0-0.8l1.8,0.3l-0.3,0.5c-0.3-0.2-0.5-0.3-0.9-0.4l-0.2,1.1l1,0.2
				l-0.4,0.4c-0.4-0.2-0.5-0.2-0.7-0.3l-0.2,1.2c0.4,0.1,0.6,0.1,1.4,0L80.6,91.6z M84.3,89.6L84,91.4c-0.1,0.5-0.1,0.7,0,0.8
				l-0.6-0.1c0-0.2-0.1-0.4-0.2-0.5l-1.1-2l-0.2,1.3c-0.1,0.3-0.1,0.7,0,1l-0.7-0.1c0.2-0.3,0.3-0.8,0.3-0.8l0.4-2
				c-0.1-0.2-0.2-0.3-0.4-0.5l0.8,0.1c0,0.2,0,0.2,0.2,0.6l1.1,2.1l0.3-1.5c0.1-0.6,0.1-0.8,0.1-1l0.6,0.1
				C84.4,89.1,84.4,89.3,84.3,89.6z M85.8,91.7c0,0.3-0.1,0.5-0.1,0.8l-0.7-0.1c0.1-0.2,0.2-0.4,0.2-0.8l0.4-2.1
				c-0.2,0-0.4-0.1-1.1,0l0.3-0.5l2.4,0.4L87,89.9c-0.3-0.2-0.4-0.3-0.8-0.3L85.8,91.7z M88.6,93.1l-1.7-0.3
				c0.1-0.2,0.2-0.4,0.3-0.8l0.3-1.6c0-0.2,0.1-0.5,0-0.8l1.8,0.3l-0.3,0.5c-0.3-0.2-0.5-0.3-0.9-0.4l-0.2,1.1l1,0.2l-0.4,0.4
				c-0.4-0.2-0.5-0.2-0.7-0.3l-0.2,1.2c0.4,0.1,0.6,0.1,1.4,0L88.6,93.1z M91,90.8c-0.1-0.1-0.3-0.3-0.6-0.4
				c-0.3-0.1-0.5,0.1-0.6,0.3c-0.1,0.3,0.2,0.5,0.6,0.8c0.4,0.4,0.5,0.6,0.4,0.9c-0.1,0.5-0.6,0.9-1.3,0.7c-0.3,0-0.4-0.1-0.5-0.2
				l0.1-0.7c0.1,0.2,0.3,0.5,0.6,0.5c0.3,0.1,0.5-0.1,0.6-0.4c0-0.2-0.1-0.4-0.2-0.5c-0.6-0.6-0.9-0.8-0.8-1.3
				c0.1-0.5,0.6-0.9,1.1-0.8c0.3,0.1,0.5,0.2,0.6,0.3L91,90.8z M93.8,91l-0.4,2.2c0,0.3-0.1,0.5-0.1,0.8l-0.7-0.1
				c0.1-0.2,0.2-0.4,0.2-0.8l0.4-2.1c-0.2,0-0.4-0.1-1.1,0l0.3-0.5l2.4,0.4l-0.3,0.5C94.3,91.1,94.2,91.1,93.8,91z M97.6,92
				l-0.3,1.7c0,0.2-0.1,0.4-0.1,0.9l-0.6-0.1c0.1-0.2,0.1-0.2,0.1-0.3c-0.2,0.1-0.6,0.2-1.1,0.2c-0.7-0.1-1-0.7-0.8-1.5l0.2-1.3
				c0.1-0.5,0.1-0.6,0-0.8l0.7,0.1c-0.1,0.2-0.2,0.3-0.2,0.8L95.3,93c0,0.2,0,0.3,0,0.5c0.1,0.4,0.4,0.6,0.7,0.6
				c0.4,0.1,0.7-0.1,0.9-0.4c0-0.1,0-0.1,0.1-0.3l0.2-1.3c0-0.1,0.1-0.5,0-0.8l0.7,0.1C97.8,91.5,97.7,91.6,97.6,92z M102.3,94.3
				c-0.6-0.6-0.9-0.8-0.8-1.3c0.1-0.5,0.6-0.9,1.1-0.8c0.3,0.1,0.5,0.2,0.6,0.3l-0.1,0.5c-0.1-0.1-0.3-0.3-0.6-0.4
				c-0.3-0.1-0.5,0.1-0.6,0.3c-0.1,0.3,0.2,0.5,0.6,0.8c0.4,0.4,0.5,0.6,0.4,0.9c-0.1,0.5-0.6,0.9-1.3,0.7c-0.3,0-0.4-0.1-0.5-0.2
				l0.1-0.7c0.1,0.2,0.3,0.5,0.6,0.5c0.3,0.1,0.5-0.1,0.6-0.4C102.5,94.5,102.4,94.4,102.3,94.3z M101.3,93.7c-0.2,1-1.1,1.5-2,1.4
				c-1.1-0.2-1.5-1.2-1.4-2c0.1-0.7,0.9-1.5,2.1-1.3C101,92,101.4,92.9,101.3,93.7z"/>
		</g>
	</g>
	<g>
		<path class="st0" d="M60.5,71.8c0.1,1.7,0.2,3.2,0.3,4.7c0,0.3,0,0.5-0.1,0.8c-0.2,0.6-0.7,0.7-1.1,0.3c-0.4-0.4-0.8-0.9-1.1-1.4
			c-1.3-2.4-2.2-4.9-2.3-7.6c-0.2-2.3-0.2-4.6-0.4-6.8c0-0.3-0.1-0.7-0.3-1c-0.6-1.6-1.3-3.1-2-4.7c-0.5-1.2-0.8-2.5-0.9-3.8
			c-0.2-1.7,0.8-3.3,2.9-3.8c1.3-0.3,2.6-0.2,3.9,0c1.1,0.1,2.3,0.4,3.4,0.6c0.3,0.1,0.7,0,1,0c2-0.5,3.9-0.8,6-0.7
			c1,0,2,0.3,2.8,0.9c0.9,0.7,1.2,1.6,1.2,2.7c-0.1,1.9-0.7,3.7-1.4,5.4c-0.5,1.1-1,2.2-1.5,3.4c-0.2,0.4-0.3,0.9-0.3,1.4
			c-0.1,2.7-0.1,5.5-0.6,8.2c-0.4,2.4-1.2,4.6-2.5,6.6c-0.2,0.3-0.4,0.5-0.6,0.8c-0.4,0.4-1,0.2-1.1-0.3c-0.1-0.7-0.1-1.4,0-2.1
			c0.3-2.8,0.3-5.7-0.6-8.4c-0.2-0.6-0.4-1.1-0.7-1.6c-0.6-0.9-1.6-0.9-2.2,0C61.4,66,61.2,67,60.9,68c-0.1,0.5-0.2,1-0.3,1.5
			C60.6,70.3,60.5,71.1,60.5,71.8z"/>
	</g>
</g>
<script  xmlns=""></script>
<script  xmlns=""></script>
</svg>
