<?xml version="1.0" encoding="utf-8"?>
<!-- Generator: Adobe Illustrator 28.2.0, SVG Export Plug-In . SVG Version: 6.00 Build 0)  -->
<svg version="1.1" id="Layer_1" xmlns="http://www.w3.org/2000/svg" xmlns:xlink="http://www.w3.org/1999/xlink" x="0px" y="0px"
	 viewBox="0 0 32 32" style="enable-background:new 0 0 32 32;" xml:space="preserve">
<style type="text/css">
	.st0{fill:#0A0B0B;}
	.st1{fill:#FFFFFF;}
</style>
<rect class="st0" width="32" height="32"/>
<path class="st1" d="M13.8,23.5c0.1,1.4,0.1,2.6,0.2,3.9c0,0.2,0,0.4-0.1,0.6c-0.1,0.5-0.6,0.6-0.9,0.3c-0.3-0.3-0.6-0.7-0.9-1.2
	c-1.1-2-1.8-4-1.9-6.3c-0.1-1.9-0.2-3.7-0.3-5.6c0-0.3-0.1-0.6-0.2-0.8c-0.5-1.3-1.1-2.5-1.6-3.8c-0.4-1-0.6-2.1-0.7-3.1
	C7.2,6.1,8,4.7,9.7,4.4c1.1-0.2,2.1-0.2,3.2,0c0.9,0.1,1.8,0.3,2.8,0.5c0.3,0,0.6,0,0.8,0c1.6-0.4,3.2-0.6,4.9-0.6
	c0.8,0,1.6,0.2,2.3,0.8c0.7,0.6,1,1.3,1,2.2c-0.1,1.6-0.6,3-1.2,4.5c-0.4,0.9-0.8,1.8-1.2,2.7c-0.1,0.3-0.2,0.7-0.2,1.1
	C22,17.8,22,20,21.6,22.2c-0.3,1.9-1,3.7-2.1,5.4c-0.1,0.2-0.3,0.4-0.5,0.6c-0.4,0.3-0.9,0.2-0.9-0.3c-0.1-0.6-0.1-1.1,0-1.7
	c0.2-2.3,0.3-4.6-0.5-6.9c-0.2-0.5-0.3-0.9-0.6-1.3c-0.5-0.7-1.3-0.7-1.8,0c-0.5,0.7-0.7,1.5-0.9,2.3c-0.1,0.4-0.2,0.8-0.2,1.2
	C13.9,22.3,13.8,23,13.8,23.5L13.8,23.5z"/>
</svg>
